<svg width="148" height="19" viewBox="0 0 148 19" fill="none" xmlns="http://www.w3.org/2000/svg">
<path d="M9.63286 13.4414C9.79692 12.5117 9.33989 11.8008 8.26177 11.3086L6.00005 10.4062C3.37505 9.23436 2.12895 7.62108 2.26177 5.56639C2.31645 4.61326 2.62895 3.76951 3.19927 3.03514C3.76958 2.30076 4.57036 1.72655 5.60161 1.31248C6.63286 0.890608 7.74614 0.687483 8.94145 0.703108C10.5899 0.734358 11.9219 1.22655 12.9375 2.17967C13.9532 3.12498 14.4532 4.39451 14.4375 5.98826H11.0157C11.0547 5.21483 10.8829 4.61326 10.5 4.18358C10.125 3.75389 9.53911 3.53123 8.74223 3.51561C7.96098 3.49998 7.2813 3.67967 6.70317 4.05467C6.12505 4.42186 5.7813 4.92967 5.67192 5.57811C5.52348 6.42967 6.0938 7.10545 7.38286 7.60545L8.92973 8.19139L9.82036 8.60154C12.125 9.74217 13.2032 11.3437 13.0547 13.4062C12.9844 14.414 12.6602 15.2851 12.0821 16.0195C11.5118 16.7461 10.7305 17.3047 9.73833 17.6953C8.75395 18.0859 7.66802 18.2695 6.48052 18.2461C5.26958 18.2226 4.19145 17.9687 3.24614 17.4844C2.30083 17 1.58208 16.3164 1.08989 15.4336C0.628953 14.6133 0.414109 13.6758 0.445359 12.6211L3.87895 12.6328C3.76958 14.4844 4.67973 15.4258 6.60942 15.457C7.44536 15.457 8.13286 15.2734 8.67192 14.9062C9.21098 14.539 9.5313 14.0508 9.63286 13.4414Z" fill="#333333"/>
<path d="M30.2461 0.937483L28.3243 12.1875C28.0586 14.0703 27.2774 15.5586 25.9805 16.6523C24.6836 17.7461 23.0743 18.2773 21.1524 18.2461C19.9493 18.2226 18.9024 17.9609 18.0118 17.4609C17.129 16.9531 16.4766 16.2422 16.0547 15.3281C15.6329 14.4062 15.4883 13.3633 15.6211 12.1992L17.5313 0.937483H20.9649L19.0547 12.2109C19 12.6484 18.9961 13.0586 19.043 13.4414C19.1993 14.707 19.9532 15.3633 21.3047 15.4101C22.2735 15.4414 23.0665 15.1758 23.6836 14.6133C24.3008 14.0508 24.6993 13.2461 24.879 12.1992L26.8008 0.937483H30.2461Z" fill="#333333"/>
<path d="M34.6172 11.9883L33.5625 18H30.129L33.0938 0.937483L39.0704 0.949201C40.9141 0.949201 42.3633 1.46092 43.418 2.48436C44.4727 3.5078 44.9336 4.84373 44.8008 6.49217C44.6758 8.16404 43.9766 9.49998 42.7032 10.5C41.4375 11.5 39.8204 12 37.8516 12L34.6172 11.9883ZM35.0977 9.14061L37.9571 9.16405C38.879 9.16405 39.6446 8.92576 40.254 8.4492C40.8633 7.97264 41.2266 7.32811 41.3438 6.51561C41.461 5.70311 41.3282 5.05467 40.9454 4.5703C40.5704 4.08592 40.0118 3.82811 39.2696 3.79686L36.0352 3.78514L35.0977 9.14061Z" fill="#333333"/>
<path d="M56.5313 10.6055H49.9922L49.1954 15.1758H56.8829L56.3907 18H45.2696L48.2344 0.937483H59.3321L58.8282 3.78514H51.1758L50.461 7.85154H57.0235L56.5313 10.6055Z" fill="#333333"/>
<path d="M65.8008 11.7539H63.0118L61.9219 18H58.4883L61.4532 0.937483L67.1016 0.949201C68.9922 0.949201 70.4454 1.39451 71.461 2.28514C72.4844 3.17576 72.9375 4.41404 72.8204 5.99998C72.6563 8.34373 71.4063 9.97264 69.0704 10.8867L71.4727 17.8125V18H67.8165L65.8008 11.7539ZM63.504 8.90623L66.0586 8.92967C66.9649 8.91405 67.711 8.67186 68.2969 8.20311C68.8907 7.72654 69.2461 7.08201 69.3633 6.26951C69.4727 5.5117 69.3516 4.91795 69 4.48826C68.6485 4.05858 68.0899 3.82811 67.3243 3.79686L64.3946 3.78514L63.504 8.90623Z" fill="#333333"/>
<path d="M73.4649 18L76.4297 0.937483L81.3282 0.949201C82.4766 0.972639 83.5079 1.23436 84.4219 1.73436C85.3438 2.22655 86.0899 2.93748 86.6602 3.86717C87.2305 4.79686 87.5743 5.84373 87.6915 7.00779C87.754 7.68748 87.7461 8.3828 87.668 9.09373L87.586 9.71483C87.2422 12.2148 86.2579 14.2226 84.6329 15.7383C83.0157 17.2461 81.0508 18 78.7383 18H73.4649ZM79.3711 3.78514L77.3907 15.1758L78.8204 15.1875C80.3985 15.1875 81.6641 14.6094 82.6172 13.4531C83.5782 12.2969 84.129 10.5508 84.2696 8.21483L84.293 7.83983C84.3165 6.55076 84.0704 5.56248 83.5547 4.87498C83.0391 4.18748 82.2696 3.82811 81.2461 3.79686L79.3711 3.78514Z" fill="#333333"/>
<path d="M104.285 0.937483L102.363 12.1875C102.098 14.0703 101.316 15.5586 100.02 16.6523C98.7227 17.7461 97.1133 18.2773 95.1915 18.2461C93.9883 18.2226 92.9415 17.9609 92.0508 17.4609C91.168 16.9531 90.5157 16.2422 90.0938 15.3281C89.6719 14.4062 89.5274 13.3633 89.6602 12.1992L91.5704 0.937483H95.004L93.0938 12.2109C93.0391 12.6484 93.0352 13.0586 93.0821 13.4414C93.2383 14.707 93.9922 15.3633 95.3438 15.4101C96.3125 15.4414 97.1055 15.1758 97.7227 14.6133C98.3399 14.0508 98.7383 13.2461 98.918 12.1992L100.84 0.937483H104.285Z" fill="#333333"/>
<path d="M108.656 11.9883L107.602 18H104.168L107.133 0.937483L113.109 0.949201C114.953 0.949201 116.402 1.46092 117.457 2.48436C118.512 3.5078 118.973 4.84373 118.84 6.49217C118.715 8.16404 118.016 9.49998 116.742 10.5C115.477 11.5 113.859 12 111.891 12L108.656 11.9883ZM109.137 9.14061L111.996 9.16405C112.918 9.16405 113.684 8.92576 114.293 8.4492C114.902 7.97264 115.266 7.32811 115.383 6.51561C115.5 5.70311 115.367 5.05467 114.984 4.5703C114.609 4.08592 114.051 3.82811 113.309 3.79686L110.074 3.78514L109.137 9.14061Z" fill="#333333"/>
<path d="M130.57 10.6055H124.031L123.234 15.1758H130.922L130.43 18H119.309L122.273 0.937483H133.371L132.867 3.78514H125.215L124.5 7.85154H131.063L130.57 10.6055Z" fill="#333333"/>
<path d="M139.84 11.7539H137.051L135.961 18H132.527L135.492 0.937483L141.141 0.949201C143.031 0.949201 144.484 1.39451 145.5 2.28514C146.523 3.17576 146.977 4.41404 146.859 5.99998C146.695 8.34373 145.445 9.97264 143.109 10.8867L145.512 17.8125V18H141.856L139.84 11.7539ZM137.543 8.90623L140.098 8.92967C141.004 8.91405 141.75 8.67186 142.336 8.20311C142.93 7.72654 143.285 7.08201 143.402 6.26951C143.512 5.5117 143.391 4.91795 143.039 4.48826C142.688 4.05858 142.129 3.82811 141.363 3.79686L138.434 3.78514L137.543 8.90623Z" fill="#333333"/>
<rect y="8" width="148" height="4" fill="white"/>
</svg>
