<svg width="148" height="19" viewBox="0 0 148 19" fill="none" xmlns="http://www.w3.org/2000/svg">
<path d="M9.63286 13.4415C9.79692 12.5118 9.33989 11.8009 8.26177 11.3087L6.00005 10.4064C3.37505 9.23448 2.12895 7.6212 2.26177 5.56651C2.31645 4.61339 2.62895 3.76964 3.19927 3.03526C3.76958 2.30089 4.57036 1.72667 5.60161 1.3126C6.63286 0.89073 7.74614 0.687605 8.94145 0.70323C10.5899 0.73448 11.9219 1.22667 12.9375 2.17979C13.9532 3.1251 14.4532 4.39464 14.4375 5.98839H11.0157C11.0547 5.21495 10.8829 4.61339 10.5 4.1837C10.125 3.75401 9.53911 3.53135 8.74223 3.51573C7.96098 3.5001 7.2813 3.67979 6.70317 4.05479C6.12505 4.42198 5.7813 4.92979 5.67192 5.57823C5.52348 6.42979 6.0938 7.10557 7.38286 7.60557L8.92973 8.19151L9.82036 8.60167C12.125 9.74229 13.2032 11.3439 13.0547 13.4064C12.9844 14.4142 12.6602 15.2853 12.0821 16.0196C11.5118 16.7462 10.7305 17.3048 9.73833 17.6954C8.75395 18.086 7.66802 18.2696 6.48052 18.2462C5.26958 18.2228 4.19145 17.9689 3.24614 17.4845C2.30083 17.0001 1.58208 16.3165 1.08989 15.4337C0.628953 14.6134 0.414109 13.6759 0.445359 12.6212L3.87895 12.6329C3.76958 14.4845 4.67973 15.4259 6.60942 15.4571C7.44536 15.4571 8.13286 15.2735 8.67192 14.9064C9.21098 14.5392 9.5313 14.0509 9.63286 13.4415Z" fill="#333333"/>
<path d="M30.2461 0.937605L28.3243 12.1876C28.0586 14.0704 27.2774 15.5587 25.9805 16.6524C24.6836 17.7462 23.0743 18.2774 21.1524 18.2462C19.9493 18.2228 18.9024 17.961 18.0118 17.461C17.129 16.9532 16.4766 16.2423 16.0547 15.3282C15.6329 14.4064 15.4883 13.3634 15.6211 12.1993L17.5313 0.937605H20.9649L19.0547 12.211C19 12.6485 18.9961 13.0587 19.043 13.4415C19.1993 14.7071 19.9532 15.3634 21.3047 15.4103C22.2735 15.4415 23.0665 15.1759 23.6836 14.6134C24.3008 14.0509 24.6993 13.2462 24.879 12.1993L26.8008 0.937605H30.2461Z" fill="#333333"/>
<path d="M34.6172 11.9884L33.5625 18.0001H30.129L33.0938 0.937605L39.0704 0.949323C40.9141 0.949323 42.3633 1.46104 43.418 2.48448C44.4727 3.50792 44.9336 4.84385 44.8008 6.49229C44.6758 8.16417 43.9766 9.5001 42.7032 10.5001C41.4375 11.5001 39.8204 12.0001 37.8516 12.0001L34.6172 11.9884ZM35.0977 9.14073L37.9571 9.16417C38.879 9.16417 39.6446 8.92589 40.254 8.44932C40.8633 7.97276 41.2266 7.32823 41.3438 6.51573C41.461 5.70323 41.3282 5.05479 40.9454 4.57042C40.5704 4.08604 40.0118 3.82823 39.2696 3.79698L36.0352 3.78526L35.0977 9.14073Z" fill="#333333"/>
<path d="M56.5313 10.6056H49.9922L49.1954 15.1759H56.8829L56.3907 18.0001H45.2696L48.2344 0.937605H59.3321L58.8282 3.78526H51.1758L50.461 7.85167H57.0235L56.5313 10.6056Z" fill="#333333"/>
<path d="M65.8008 11.754H63.0118L61.9219 18.0001H58.4883L61.4532 0.937605L67.1016 0.949323C68.9922 0.949323 70.4454 1.39464 71.461 2.28526C72.4844 3.17589 72.9375 4.41417 72.8204 6.0001C72.6563 8.34385 71.4063 9.97276 69.0704 10.8868L71.4727 17.8126V18.0001H67.8165L65.8008 11.754ZM63.504 8.90635L66.0586 8.92979C66.9649 8.91417 67.711 8.67198 68.2969 8.20323C68.8907 7.72667 69.2461 7.08214 69.3633 6.26964C69.4727 5.51182 69.3516 4.91807 69 4.48839C68.6485 4.0587 68.0899 3.82823 67.3243 3.79698L64.3946 3.78526L63.504 8.90635Z" fill="#333333"/>
<path d="M73.4649 18.0001L76.4297 0.937605L81.3282 0.949323C82.4766 0.972761 83.5079 1.23448 84.4219 1.73448C85.3438 2.22667 86.0899 2.9376 86.6602 3.86729C87.2305 4.79698 87.5743 5.84385 87.6915 7.00792C87.754 7.6876 87.7461 8.38292 87.668 9.09385L87.586 9.71495C87.2422 12.2149 86.2579 14.2228 84.6329 15.7384C83.0157 17.2462 81.0508 18.0001 78.7383 18.0001H73.4649ZM79.3711 3.78526L77.3907 15.1759L78.8204 15.1876C80.3985 15.1876 81.6641 14.6095 82.6172 13.4532C83.5782 12.297 84.129 10.5509 84.2696 8.21495L84.293 7.83995C84.3165 6.55089 84.0704 5.5626 83.5547 4.8751C83.0391 4.1876 82.2696 3.82823 81.2461 3.79698L79.3711 3.78526Z" fill="#333333"/>
<path d="M104.285 0.937605L102.363 12.1876C102.098 14.0704 101.316 15.5587 100.02 16.6524C98.7227 17.7462 97.1133 18.2774 95.1915 18.2462C93.9883 18.2228 92.9415 17.961 92.0508 17.461C91.168 16.9532 90.5157 16.2423 90.0938 15.3282C89.6719 14.4064 89.5274 13.3634 89.6602 12.1993L91.5704 0.937605H95.004L93.0938 12.211C93.0391 12.6485 93.0352 13.0587 93.0821 13.4415C93.2383 14.7071 93.9922 15.3634 95.3438 15.4103C96.3125 15.4415 97.1055 15.1759 97.7227 14.6134C98.3399 14.0509 98.7383 13.2462 98.918 12.1993L100.84 0.937605H104.285Z" fill="#333333"/>
<path d="M108.656 11.9884L107.602 18.0001H104.168L107.133 0.937605L113.109 0.949323C114.953 0.949323 116.402 1.46104 117.457 2.48448C118.512 3.50792 118.973 4.84385 118.84 6.49229C118.715 8.16417 118.016 9.5001 116.742 10.5001C115.477 11.5001 113.859 12.0001 111.891 12.0001L108.656 11.9884ZM109.137 9.14073L111.996 9.16417C112.918 9.16417 113.684 8.92589 114.293 8.44932C114.902 7.97276 115.266 7.32823 115.383 6.51573C115.5 5.70323 115.367 5.05479 114.984 4.57042C114.609 4.08604 114.051 3.82823 113.309 3.79698L110.074 3.78526L109.137 9.14073Z" fill="#333333"/>
<path d="M130.57 10.6056H124.031L123.234 15.1759H130.922L130.43 18.0001H119.309L122.273 0.937605H133.371L132.867 3.78526H125.215L124.5 7.85167H131.063L130.57 10.6056Z" fill="#333333"/>
<path d="M139.84 11.754H137.051L135.961 18.0001H132.527L135.492 0.937605L141.141 0.949323C143.031 0.949323 144.484 1.39464 145.5 2.28526C146.523 3.17589 146.977 4.41417 146.859 6.0001C146.695 8.34385 145.445 9.97276 143.109 10.8868L145.512 17.8126V18.0001H141.856L139.84 11.754ZM137.543 8.90635L140.098 8.92979C141.004 8.91417 141.75 8.67198 142.336 8.20323C142.93 7.72667 143.285 7.08214 143.402 6.26964C143.512 5.51182 143.391 4.91807 143.039 4.48839C142.688 4.0587 142.129 3.82823 141.363 3.79698L138.434 3.78526L137.543 8.90635Z" fill="#333333"/>
<rect y="8" width="148" height="4" fill="#E2FA1D"/>
</svg>
