<svg width="28" height="28" viewBox="0 0 28 28" fill="none" xmlns="http://www.w3.org/2000/svg">
<path d="M28 26.59L20.45 19C22.255 16.8222 23.1516 14.0329 22.9538 11.2112C22.7559 8.38965 21.4787 5.7527 19.3875 3.84812C17.2963 1.94354 14.5518 0.91771 11.724 0.983711C8.89628 1.04971 6.20262 2.20247 4.20254 4.20254C2.20247 6.20262 1.04971 8.89628 0.983711 11.724C0.91771 14.5518 1.94354 17.2963 3.84812 19.3875C5.7527 21.4787 8.38965 22.7559 11.2112 22.9538C14.0329 23.1516 16.8222 22.255 19 20.45L26.59 28L28 26.59ZM3.00003 12C3.00003 10.22 3.52787 8.47994 4.5168 6.9999C5.50573 5.51985 6.91134 4.3663 8.55588 3.68511C10.2004 3.00392 12.01 2.82569 13.7558 3.17296C15.5017 3.52023 17.1053 4.37739 18.364 5.63607C19.6227 6.89474 20.4798 8.49839 20.8271 10.2442C21.1744 11.99 20.9961 13.7996 20.3149 15.4442C19.6338 17.0887 18.4802 18.4943 17.0002 19.4833C15.5201 20.4722 13.7801 21 12 21C9.61308 21 7.32389 20.0518 5.63607 18.364C3.94824 16.6762 3.00003 14.387 3.00003 12Z" fill="#333333"/>
</svg>
